<svg id="圖層_1" data-name="圖層 1" xmlns="http://www.w3.org/2000/svg" viewBox="0 0 183.13 221.46"><defs><style>.cls-1{fill:none;stroke:#e51726;stroke-miterlimit:10;stroke-width:3px;}</style></defs><path class="cls-1" d="M144.06,158.22a14.42,14.42,0,0,1-1.66,6.9q-11.19,11.67-24.75,28.08,1.42,25.7,5,42.6L116,252q-1.42,3.79-7.37,3.8,0-3.57-12.38-10.47-10.47-5-16.89-18.56a29.32,29.32,0,0,1-8.8,1.19c-2.07,0-3.81-1.9-5.24-5.71-4.13-2.53-6.19-4.84-6.19-6.9a68.08,68.08,0,0,1,1.43-13.8h3.33c1.59,4.28,2.94,6.43,4.05,6.43q8.56-4.53,23.79-16,4.52-3.57,8.81-6.66Q100,173,100,163.22l-26.65,14-14.28,1.9q-4.28-.94-7.37-6.9a13,13,0,0,1-1.19-5.47,16.46,16.46,0,0,1,1.66-7.85c.32-1,1.67-1.43,4-1.43a5.25,5.25,0,0,0,3.81,1.67q16.41-8.58,40.45-19.52.23-8.32.47-16.89.72-5.23,4.29-6.43a27.79,27.79,0,0,1,9,1.19q3.33,1.2,3.33,3.81-.24,5.72-.48,10.71,10.47-4.52,21.9-9.52a100.17,100.17,0,0,1-3.34-10.47Q130.26,92.54,125,72.32q-.48-10.47-9.52-12.13Q115.51,44,127.17,44q14,0,15.94,28.79a294.38,294.38,0,0,0,9.28,44.26q10.47-4.52,21.66-9a12.74,12.74,0,0,0-.72-4l17.13,4.76,3.57,5v3.33q-.71,3.81-14,9.28-10.47,3.57-22.13,8.09,8.56,25.22,15,39.26a151.57,151.57,0,0,0,7.85-22.37l-2.62-8.09q0-4.28,5.95-4.28,15.47,3.57,17.37,15.7c.63.16,1,1,1,2.38q-.48,5.72-11.18,24a108,108,0,0,1-8.57,12.37A242,242,0,0,0,200,221.52q8.09,10.47,13.8,11.42a151.3,151.3,0,0,0,2.38-28.79q-.24-9.28-1.19-20a125.14,125.14,0,0,1,9.28,16.66l2.15,16.42q0,10,2.37,15.7.72,10.94,1.91,21.18,0,5.94-7.86,8.33-9.75-1-21.65-12.38-4-5.48-5.71-6.42-14.52-13.8-25.94-36.65a178.74,178.74,0,0,1-18.79,14.52l-11.19,7.61-12.85,3.1Q138.82,221.52,145,213.9q7.62-7.14,17.38-21.89-4.77-11.41-8.81-24.27-4.52-12.84-9.28-27.13-13.34,6-27.36,13.57v19.75q7.84-4.76,15.7-9.28Zm-25-54.73a174.55,174.55,0,0,1-22.37,15.23q-2.85,5.48-25.22,15.95a56.43,56.43,0,0,0-8.33.71q13.56-20.46,40.69-51.16,0-4.75,9.28-4.76h5.47q3.81,1,7.62,19.28C126.22,100.64,123.84,102.23,119.08,103.49ZM84.57,223.9a70.51,70.51,0,0,1,6.67,5.95q6.18,5,9.75,5c1.91-.16,2.86-1.66,2.86-4.52q-1-10.47-1.67-20Q92.67,219.62,84.57,223.9Zm92.09-154q9.28,4.29,13.8,17.61l1.19,1.19q0,8.1-5.71,8.09a10,10,0,0,1-2.38-.24q-7.84-1.19-17.84-9.75-6-6.9-6.43-13.57,0-2.13,3.57-3.09Q168.33,69.94,176.66,69.94Z" transform="translate(-49.05 -42.51)"/></svg>